{
  "start_time": "2025-09-01T17:55:52.85259975+08:00",
  "end_time": "2025-09-01T17:56:17.39382+08:00",
  "duration": 24541220250,
  "source_directory": "/Users/nameko_1/Downloads/test/pkg/converter/test_integration",
  "total_files": 5,
  "processed_files": 5,
  "successful_files": 0,
  "failed_files": 5,
  "skipped_files": 0,
  "total_size_before": 130,
  "total_size_after": 0,
  "space_saved": 130,
  "compression_ratio": 100,
  "conversion_mode": "auto+",
  "file_details": [
    {
      "original_path": "/Users/nameko_1/Downloads/test/pkg/converter/test_integration/test_2.jpg",
      "output_path": "",
      "original_size": 26,
      "output_size": 0,
      "compression_ratio": 0,
      "original_format": ".jpg",
      "output_format": "",
      "processing_time": 12271576833,
      "method": "image_conversion",
      "success": false,
      "error": "both cjxl and FFmpeg lossless JXL conversion failed: exit status 69, output: ffmpeg version 8.0 Copyright (c) 2000-2025 the FFmpeg developers\n  built with Apple clang version 17.0.0 (clang-1700.0.13.3)\n  configuration: --prefix=/opt/homebrew/Cellar/ffmpeg/8.0 --enable-shared --enable-pthreads --enable-version3 --cc=clang --host-cflags= --host-ldflags='-Wl,-ld_classic' --enable-ffplay --enable-gnutls --enable-gpl --enable-libaom --enable-libaribb24 --enable-libbluray --enable-libdav1d --enable-libharfbuzz --enable-libjxl --enable-libmp3lame --enable-libopus --enable-librav1e --enable-librist --enable-librubberband --enable-libsnappy --enable-libsrt --enable-libssh --enable-libsvtav1 --enable-libtesseract --enable-libtheora --enable-libvidstab --enable-libvmaf --enable-libvorbis --enable-libvpx --enable-libwebp --enable-libx264 --enable-libx265 --enable-libxml2 --enable-libxvid --enable-lzma --enable-libfontconfig --enable-libfreetype --enable-frei0r --enable-libass --enable-libopencore-amrnb --enable-libopencore-amrwb --enable-libopenjpeg --enable-libspeex --enable-libsoxr --enable-libzmq --enable-libzimg --disable-libjack --disable-indev=jack --enable-videotoolbox --enable-audiotoolbox --enable-neon\n  libavutil      60.  8.100 / 60.  8.100\n  libavcodec     62. 11.100 / 62. 11.100\n  libavformat    62.  3.100 / 62.  3.100\n  libavdevice    62.  1.100 / 62.  1.100\n  libavfilter    11.  4.100 / 11.  4.100\n  libswscale      9.  1.100 /  9.  1.100\n  libswresample   6.  1.100 /  6.  1.100\n[mjpeg @ 0x8d0c50380] No JPEG data found in image\n[image2 @ 0x8d1038000] Could not find codec parameters for stream 0 (Video: mjpeg, none(bt470bg/unknown/unknown)): unspecified size\nConsider increasing the value for the 'analyzeduration' (0) and 'probesize' (5000000) options\nInput #0, image2, from '/Users/nameko_1/Downloads/test/pkg/converter/test_integration/test_2.jpg':\n  Duration: 00:00:00.04, start: 0.000000, bitrate: 5 kb/s\n  Stream #0:0: Video: mjpeg, none(bt470bg/unknown/unknown), 25 fps, 25 tbr, 25 tbn\nStream mapping:\n  Stream #0:0 -\u003e #0:0 (mjpeg (native) -\u003e jpegxl (libjxl))\nPress [q] to stop, [?] for help\n[mjpeg @ 0x8d0c50e00] No JPEG data found in image\n[vist#0:0/mjpeg @ 0x8d0c40300] [dec:mjpeg @ 0x8d1034280] Error submitting packet to decoder: Invalid data found when processing input\n[vist#0:0/mjpeg @ 0x8d0c40300] [dec:mjpeg @ 0x8d1034280] Decode error rate 1 exceeds maximum 0.666667\n[vist#0:0/mjpeg @ 0x8d0c40300] [dec:mjpeg @ 0x8d1034280] Task finished with error code: -1145393733 (Error number -1145393733 occurred)\n[vist#0:0/mjpeg @ 0x8d0c40300] [dec:mjpeg @ 0x8d1034280] Terminating thread with return code -1145393733 (Error number -1145393733 occurred)\n[vf#0:0 @ 0x8d0c38f00] Cannot determine format of input 0:0 after EOF\n[vf#0:0 @ 0x8d0c38f00] Task finished with error code: -1094995529 (Invalid data found when processing input)\n[vf#0:0 @ 0x8d0c38f00] Terminating thread with return code -1094995529 (Invalid data found when processing input)\n[vost#0:0/libjxl @ 0x8d0c84000] [enc:libjxl @ 0x8d0c481c0] Could not open encoder before EOF\n[vost#0:0/libjxl @ 0x8d0c84000] Task finished with error code: -22 (Invalid argument)\n[vost#0:0/libjxl @ 0x8d0c84000] Terminating thread with return code -22 (Invalid argument)\n[out#0/image2 @ 0x8d102cf00] Nothing was written into output file, because at least one of its streams received no packets.\nframe=    0 fps=0.0 q=0.0 Lsize=       0KiB time=N/A bitrate=N/A speed=N/A elapsed=0:00:00.00    \nConversion failed!\n"
    },
    {
      "original_path": "/Users/nameko_1/Downloads/test/pkg/converter/test_integration/test_1.jpg",
      "output_path": "",
      "original_size": 26,
      "output_size": 0,
      "compression_ratio": 0,
      "original_format": ".jpg",
      "output_format": "",
      "processing_time": 12272241417,
      "method": "image_conversion",
      "success": false,
      "error": "both cjxl and FFmpeg lossless JXL conversion failed: exit status 69, output: ffmpeg version 8.0 Copyright (c) 2000-2025 the FFmpeg developers\n  built with Apple clang version 17.0.0 (clang-1700.0.13.3)\n  configuration: --prefix=/opt/homebrew/Cellar/ffmpeg/8.0 --enable-shared --enable-pthreads --enable-version3 --cc=clang --host-cflags= --host-ldflags='-Wl,-ld_classic' --enable-ffplay --enable-gnutls --enable-gpl --enable-libaom --enable-libaribb24 --enable-libbluray --enable-libdav1d --enable-libharfbuzz --enable-libjxl --enable-libmp3lame --enable-libopus --enable-librav1e --enable-librist --enable-librubberband --enable-libsnappy --enable-libsrt --enable-libssh --enable-libsvtav1 --enable-libtesseract --enable-libtheora --enable-libvidstab --enable-libvmaf --enable-libvorbis --enable-libvpx --enable-libwebp --enable-libx264 --enable-libx265 --enable-libxml2 --enable-libxvid --enable-lzma --enable-libfontconfig --enable-libfreetype --enable-frei0r --enable-libass --enable-libopencore-amrnb --enable-libopencore-amrwb --enable-libopenjpeg --enable-libspeex --enable-libsoxr --enable-libzmq --enable-libzimg --disable-libjack --disable-indev=jack --enable-videotoolbox --enable-audiotoolbox --enable-neon\n  libavutil      60.  8.100 / 60.  8.100\n  libavcodec     62. 11.100 / 62. 11.100\n  libavformat    62.  3.100 / 62.  3.100\n  libavdevice    62.  1.100 / 62.  1.100\n  libavfilter    11.  4.100 / 11.  4.100\n  libswscale      9.  1.100 /  9.  1.100\n  libswresample   6.  1.100 /  6.  1.100\n[mjpeg @ 0x930c64380] No JPEG data found in image\n[image2 @ 0x931010000] Could not find codec parameters for stream 0 (Video: mjpeg, none(bt470bg/unknown/unknown)): unspecified size\nConsider increasing the value for the 'analyzeduration' (0) and 'probesize' (5000000) options\nInput #0, image2, from '/Users/nameko_1/Downloads/test/pkg/converter/test_integration/test_1.jpg':\n  Duration: 00:00:00.04, start: 0.000000, bitrate: 5 kb/s\n  Stream #0:0: Video: mjpeg, none(bt470bg/unknown/unknown), 25 fps, 25 tbr, 25 tbn\nStream mapping:\n  Stream #0:0 -\u003e #0:0 (mjpeg (native) -\u003e jpegxl (libjxl))\nPress [q] to stop, [?] for help\n[mjpeg @ 0x930c64e00] No JPEG data found in image\n[vist#0:0/mjpeg @ 0x930c54300] [dec:mjpeg @ 0x93100c280] Error submitting packet to decoder: Invalid data found when processing input\n[vist#0:0/mjpeg @ 0x930c54300] [dec:mjpeg @ 0x93100c280] Decode error rate 1 exceeds maximum 0.666667\n[vist#0:0/mjpeg @ 0x930c54300] [dec:mjpeg @ 0x93100c280] Task finished with error code: -1145393733 (Error number -1145393733 occurred)\n[vf#0:0 @ 0x930c4cf00] Cannot determine format of input 0:0 after EOF\n[vf#0:0 @ 0x930c4cf00] Task finished with error code: -1094995529 (Invalid data found when processing input)\n[vf#0:0 @ 0x930c4cf00] Terminating thread with return code -1094995529 (Invalid data found when processing input)\n[vost#0:0/libjxl @ 0x930c90000] [enc:libjxl @ 0x930c5c1c0] Could not open encoder before EOF\n[vost#0:0/libjxl @ 0x930c90000] Task finished with error code: -22 (Invalid argument)\n[vost#0:0/libjxl @ 0x930c90000] Terminating thread with return code -22 (Invalid argument)\n[vist#0:0/mjpeg @ 0x930c54300] [dec:mjpeg @ 0x93100c280] Terminating thread with return code -1145393733 (Error number -1145393733 occurred)\n[out#0/image2 @ 0x931014240] Nothing was written into output file, because at least one of its streams received no packets.\nframe=    0 fps=0.0 q=0.0 Lsize=       0KiB time=N/A bitrate=N/A speed=N/A elapsed=0:00:00.00    \nConversion failed!\n"
    },
    {
      "original_path": "/Users/nameko_1/Downloads/test/pkg/converter/test_integration/test_0.jpg",
      "output_path": "",
      "original_size": 26,
      "output_size": 0,
      "compression_ratio": 0,
      "original_format": ".jpg",
      "output_format": "",
      "processing_time": 12272457666,
      "method": "image_conversion",
      "success": false,
      "error": "both cjxl and FFmpeg lossless JXL conversion failed: exit status 69, output: ffmpeg version 8.0 Copyright (c) 2000-2025 the FFmpeg developers\n  built with Apple clang version 17.0.0 (clang-1700.0.13.3)\n  configuration: --prefix=/opt/homebrew/Cellar/ffmpeg/8.0 --enable-shared --enable-pthreads --enable-version3 --cc=clang --host-cflags= --host-ldflags='-Wl,-ld_classic' --enable-ffplay --enable-gnutls --enable-gpl --enable-libaom --enable-libaribb24 --enable-libbluray --enable-libdav1d --enable-libharfbuzz --enable-libjxl --enable-libmp3lame --enable-libopus --enable-librav1e --enable-librist --enable-librubberband --enable-libsnappy --enable-libsrt --enable-libssh --enable-libsvtav1 --enable-libtesseract --enable-libtheora --enable-libvidstab --enable-libvmaf --enable-libvorbis --enable-libvpx --enable-libwebp --enable-libx264 --enable-libx265 --enable-libxml2 --enable-libxvid --enable-lzma --enable-libfontconfig --enable-libfreetype --enable-frei0r --enable-libass --enable-libopencore-amrnb --enable-libopencore-amrwb --enable-libopenjpeg --enable-libspeex --enable-libsoxr --enable-libzmq --enable-libzimg --disable-libjack --disable-indev=jack --enable-videotoolbox --enable-audiotoolbox --enable-neon\n  libavutil      60.  8.100 / 60.  8.100\n  libavcodec     62. 11.100 / 62. 11.100\n  libavformat    62.  3.100 / 62.  3.100\n  libavdevice    62.  1.100 / 62.  1.100\n  libavfilter    11.  4.100 / 11.  4.100\n  libswscale      9.  1.100 /  9.  1.100\n  libswresample   6.  1.100 /  6.  1.100\n[mjpeg @ 0xa1d04c380] No JPEG data found in image\n[image2 @ 0xa1d020000] Could not find codec parameters for stream 0 (Video: mjpeg, none(bt470bg/unknown/unknown)): unspecified size\nConsider increasing the value for the 'analyzeduration' (0) and 'probesize' (5000000) options\nInput #0, image2, from '/Users/nameko_1/Downloads/test/pkg/converter/test_integration/test_0.jpg':\n  Duration: 00:00:00.04, start: 0.000000, bitrate: 5 kb/s\n  Stream #0:0: Video: mjpeg, none(bt470bg/unknown/unknown), 25 fps, 25 tbr, 25 tbn\nStream mapping:\n  Stream #0:0 -\u003e #0:0 (mjpeg (native) -\u003e jpegxl (libjxl))\nPress [q] to stop, [?] for help\n[mjpeg @ 0xa1d04ce00] No JPEG data found in image\n[vist#0:0/mjpeg @ 0xa1cc60300] [dec:mjpeg @ 0xa1d018280] Error submitting packet to decoder: Invalid data found when processing input\n[vist#0:0/mjpeg @ 0xa1cc60300] [dec:mjpeg @ 0xa1d018280] Decode error rate 1 exceeds maximum 0.666667\n[vist#0:0/mjpeg @ 0xa1cc60300] [dec:mjpeg @ 0xa1d018280] Task finished with error code: -1145393733 (Error number -1145393733 occurred)\n[vist#0:0/mjpeg @ 0xa1cc60300] [dec:mjpeg @ 0xa1d018280] Terminating thread with return code -1145393733 (Error number -1145393733 occurred)\n[vf#0:0 @ 0xa1cc64500] Cannot determine format of input 0:0 after EOF\n[vf#0:0 @ 0xa1cc64500] Task finished with error code: -1094995529 (Invalid data found when processing input)\n[vf#0:0 @ 0xa1cc64500] Terminating thread with return code -1094995529 (Invalid data found when processing input)\n[vost#0:0/libjxl @ 0xa1d07c000] [enc:libjxl @ 0xa1d01c1c0] Could not open encoder before EOF\n[vost#0:0/libjxl @ 0xa1d07c000] Task finished with error code: -22 (Invalid argument)\n[vost#0:0/libjxl @ 0xa1d07c000] Terminating thread with return code -22 (Invalid argument)\n[out#0/image2 @ 0xa1d024240] Nothing was written into output file, because at least one of its streams received no packets.\nframe=    0 fps=0.0 q=0.0 Lsize=       0KiB time=N/A bitrate=N/A speed=N/A elapsed=0:00:00.00    \nConversion failed!\n"
    },
    {
      "original_path": "/Users/nameko_1/Downloads/test/pkg/converter/test_integration/test_4.jpg",
      "output_path": "",
      "original_size": 26,
      "output_size": 0,
      "compression_ratio": 0,
      "original_format": ".jpg",
      "output_format": "",
      "processing_time": 12268859292,
      "method": "image_conversion",
      "success": false,
      "error": "both cjxl and FFmpeg lossless JXL conversion failed: exit status 69, output: ffmpeg version 8.0 Copyright (c) 2000-2025 the FFmpeg developers\n  built with Apple clang version 17.0.0 (clang-1700.0.13.3)\n  configuration: --prefix=/opt/homebrew/Cellar/ffmpeg/8.0 --enable-shared --enable-pthreads --enable-version3 --cc=clang --host-cflags= --host-ldflags='-Wl,-ld_classic' --enable-ffplay --enable-gnutls --enable-gpl --enable-libaom --enable-libaribb24 --enable-libbluray --enable-libdav1d --enable-libharfbuzz --enable-libjxl --enable-libmp3lame --enable-libopus --enable-librav1e --enable-librist --enable-librubberband --enable-libsnappy --enable-libsrt --enable-libssh --enable-libsvtav1 --enable-libtesseract --enable-libtheora --enable-libvidstab --enable-libvmaf --enable-libvorbis --enable-libvpx --enable-libwebp --enable-libx264 --enable-libx265 --enable-libxml2 --enable-libxvid --enable-lzma --enable-libfontconfig --enable-libfreetype --enable-frei0r --enable-libass --enable-libopencore-amrnb --enable-libopencore-amrwb --enable-libopenjpeg --enable-libspeex --enable-libsoxr --enable-libzmq --enable-libzimg --disable-libjack --disable-indev=jack --enable-videotoolbox --enable-audiotoolbox --enable-neon\n  libavutil      60.  8.100 / 60.  8.100\n  libavcodec     62. 11.100 / 62. 11.100\n  libavformat    62.  3.100 / 62.  3.100\n  libavdevice    62.  1.100 / 62.  1.100\n  libavfilter    11.  4.100 / 11.  4.100\n  libswscale      9.  1.100 /  9.  1.100\n  libswresample   6.  1.100 /  6.  1.100\n[mjpeg @ 0x713038380] No JPEG data found in image\n[image2 @ 0x713034000] Could not find codec parameters for stream 0 (Video: mjpeg, none(bt470bg/unknown/unknown)): unspecified size\nConsider increasing the value for the 'analyzeduration' (0) and 'probesize' (5000000) options\nInput #0, image2, from '/Users/nameko_1/Downloads/test/pkg/converter/test_integration/test_4.jpg':\n  Duration: 00:00:00.04, start: 0.000000, bitrate: 5 kb/s\n  Stream #0:0: Video: mjpeg, none(bt470bg/unknown/unknown), 25 fps, 25 tbr, 25 tbn\nStream mapping:\n  Stream #0:0 -\u003e #0:0 (mjpeg (native) -\u003e jpegxl (libjxl))\nPress [q] to stop, [?] for help\n[mjpeg @ 0x713038e00] No JPEG data found in image\n[vist#0:0/mjpeg @ 0x71302c300] [dec:mjpeg @ 0x713030280] Error submitting packet to decoder: Invalid data found when processing input\n[vist#0:0/mjpeg @ 0x71302c300] [dec:mjpeg @ 0x713030280] Decode error rate 1 exceeds maximum 0.666667\n[vist#0:0/mjpeg @ 0x71302c300] [dec:mjpeg @ 0x713030280] Task finished with error code: -1145393733 (Error number -1145393733 occurred)\n[vist#0:0/mjpeg @ 0x71302c300] [dec:mjpeg @ 0x713030280] Terminating thread with return code -1145393733 (Error number -1145393733 occurred)\n[vf#0:0 @ 0x712c68500] Cannot determine format of input 0:0 after EOF\n[vf#0:0 @ 0x712c68500] Task finished with error code: -1094995529 (Invalid data found when processing input)\n[vf#0:0 @ 0x712c68500] Terminating thread with return code -1094995529 (Invalid data found when processing input)\n[vost#0:0/libjxl @ 0x712c98000] [enc:libjxl @ 0x712c09500] Could not open encoder before EOF\n[vost#0:0/libjxl @ 0x712c98000] Task finished with error code: -22 (Invalid argument)\n[vost#0:0/libjxl @ 0x712c98000] Terminating thread with return code -22 (Invalid argument)\n[out#0/image2 @ 0x712c0c780] Nothing was written into output file, because at least one of its streams received no packets.\nframe=    0 fps=0.0 q=0.0 Lsize=       0KiB time=N/A bitrate=N/A speed=N/A elapsed=0:00:00.00    \nConversion failed!\n"
    },
    {
      "original_path": "/Users/nameko_1/Downloads/test/pkg/converter/test_integration/test_3.jpg",
      "output_path": "",
      "original_size": 26,
      "output_size": 0,
      "compression_ratio": 0,
      "original_format": ".jpg",
      "output_format": "",
      "processing_time": 12269507916,
      "method": "image_conversion",
      "success": false,
      "error": "both cjxl and FFmpeg lossless JXL conversion failed: exit status 69, output: ffmpeg version 8.0 Copyright (c) 2000-2025 the FFmpeg developers\n  built with Apple clang version 17.0.0 (clang-1700.0.13.3)\n  configuration: --prefix=/opt/homebrew/Cellar/ffmpeg/8.0 --enable-shared --enable-pthreads --enable-version3 --cc=clang --host-cflags= --host-ldflags='-Wl,-ld_classic' --enable-ffplay --enable-gnutls --enable-gpl --enable-libaom --enable-libaribb24 --enable-libbluray --enable-libdav1d --enable-libharfbuzz --enable-libjxl --enable-libmp3lame --enable-libopus --enable-librav1e --enable-librist --enable-librubberband --enable-libsnappy --enable-libsrt --enable-libssh --enable-libsvtav1 --enable-libtesseract --enable-libtheora --enable-libvidstab --enable-libvmaf --enable-libvorbis --enable-libvpx --enable-libwebp --enable-libx264 --enable-libx265 --enable-libxml2 --enable-libxvid --enable-lzma --enable-libfontconfig --enable-libfreetype --enable-frei0r --enable-libass --enable-libopencore-amrnb --enable-libopencore-amrwb --enable-libopenjpeg --enable-libspeex --enable-libsoxr --enable-libzmq --enable-libzimg --disable-libjack --disable-indev=jack --enable-videotoolbox --enable-audiotoolbox --enable-neon\n  libavutil      60.  8.100 / 60.  8.100\n  libavcodec     62. 11.100 / 62. 11.100\n  libavformat    62.  3.100 / 62.  3.100\n  libavdevice    62.  1.100 / 62.  1.100\n  libavfilter    11.  4.100 / 11.  4.100\n  libswscale      9.  1.100 /  9.  1.100\n  libswresample   6.  1.100 /  6.  1.100\n[mjpeg @ 0xb4d038380] No JPEG data found in image\n[image2 @ 0xb4d034000] Could not find codec parameters for stream 0 (Video: mjpeg, none(bt470bg/unknown/unknown)): unspecified size\nConsider increasing the value for the 'analyzeduration' (0) and 'probesize' (5000000) options\nInput #0, image2, from '/Users/nameko_1/Downloads/test/pkg/converter/test_integration/test_3.jpg':\n  Duration: 00:00:00.04, start: 0.000000, bitrate: 5 kb/s\n  Stream #0:0: Video: mjpeg, none(bt470bg/unknown/unknown), 25 fps, 25 tbr, 25 tbn\nStream mapping:\n  Stream #0:0 -\u003e #0:0 (mjpeg (native) -\u003e jpegxl (libjxl))\nPress [q] to stop, [?] for help\n[mjpeg @ 0xb4d038e00] No JPEG data found in image\n[vist#0:0/mjpeg @ 0xb4d02c300] [dec:mjpeg @ 0xb4d030280] Error submitting packet to decoder: Invalid data found when processing input\n[vist#0:0/mjpeg @ 0xb4d02c300] [dec:mjpeg @ 0xb4d030280] Decode error rate 1 exceeds maximum 0.666667\n[vist#0:0/mjpeg @ 0xb4d02c300] [dec:mjpeg @ 0xb4d030280] Task finished with error code: -1145393733 (Error number -1145393733 occurred)\n[vist#0:0/mjpeg @ 0xb4d02c300] [dec:mjpeg @ 0xb4d030280] Terminating thread with return code -1145393733 (Error number -1145393733 occurred)\n[vf#0:0 @ 0xb4cc70500] Cannot determine format of input 0:0 after EOF\n[vf#0:0 @ 0xb4cc70500] Task finished with error code: -1094995529 (Invalid data found when processing input)\n[vf#0:0 @ 0xb4cc70500] Terminating thread with return code -1094995529 (Invalid data found when processing input)\n[vost#0:0/libjxl @ 0xb4cca0000] [enc:libjxl @ 0xb4cc09570] Could not open encoder before EOF\n[vost#0:0/libjxl @ 0xb4cca0000] Task finished with error code: -22 (Invalid argument)\n[vost#0:0/libjxl @ 0xb4cca0000] Terminating thread with return code -22 (Invalid argument)\n[out#0/image2 @ 0xb4cc0c780] Nothing was written into output file, because at least one of its streams received no packets.\nframe=    0 fps=0.0 q=0.0 Lsize=       0KiB time=N/A bitrate=N/A speed=N/A elapsed=0:00:00.00    \nConversion failed!\n"
    }
  ],
  "format_summary": {},
  "system_info": {
    "os": "darwin",
    "arch": "arm64",
    "cpu_cores": 3,
    "concurrency": 3,
    "memory_used_mb": 0
  },
  "errors": [
    {
      "file": "/Users/nameko_1/Downloads/test/pkg/converter/test_integration/test_2.jpg",
      "error": "both cjxl and FFmpeg lossless JXL conversion failed: exit status 69, output: ffmpeg version 8.0 Copyright (c) 2000-2025 the FFmpeg developers\n  built with Apple clang version 17.0.0 (clang-1700.0.13.3)\n  configuration: --prefix=/opt/homebrew/Cellar/ffmpeg/8.0 --enable-shared --enable-pthreads --enable-version3 --cc=clang --host-cflags= --host-ldflags='-Wl,-ld_classic' --enable-ffplay --enable-gnutls --enable-gpl --enable-libaom --enable-libaribb24 --enable-libbluray --enable-libdav1d --enable-libharfbuzz --enable-libjxl --enable-libmp3lame --enable-libopus --enable-librav1e --enable-librist --enable-librubberband --enable-libsnappy --enable-libsrt --enable-libssh --enable-libsvtav1 --enable-libtesseract --enable-libtheora --enable-libvidstab --enable-libvmaf --enable-libvorbis --enable-libvpx --enable-libwebp --enable-libx264 --enable-libx265 --enable-libxml2 --enable-libxvid --enable-lzma --enable-libfontconfig --enable-libfreetype --enable-frei0r --enable-libass --enable-libopencore-amrnb --enable-libopencore-amrwb --enable-libopenjpeg --enable-libspeex --enable-libsoxr --enable-libzmq --enable-libzimg --disable-libjack --disable-indev=jack --enable-videotoolbox --enable-audiotoolbox --enable-neon\n  libavutil      60.  8.100 / 60.  8.100\n  libavcodec     62. 11.100 / 62. 11.100\n  libavformat    62.  3.100 / 62.  3.100\n  libavdevice    62.  1.100 / 62.  1.100\n  libavfilter    11.  4.100 / 11.  4.100\n  libswscale      9.  1.100 /  9.  1.100\n  libswresample   6.  1.100 /  6.  1.100\n[mjpeg @ 0x8d0c50380] No JPEG data found in image\n[image2 @ 0x8d1038000] Could not find codec parameters for stream 0 (Video: mjpeg, none(bt470bg/unknown/unknown)): unspecified size\nConsider increasing the value for the 'analyzeduration' (0) and 'probesize' (5000000) options\nInput #0, image2, from '/Users/nameko_1/Downloads/test/pkg/converter/test_integration/test_2.jpg':\n  Duration: 00:00:00.04, start: 0.000000, bitrate: 5 kb/s\n  Stream #0:0: Video: mjpeg, none(bt470bg/unknown/unknown), 25 fps, 25 tbr, 25 tbn\nStream mapping:\n  Stream #0:0 -\u003e #0:0 (mjpeg (native) -\u003e jpegxl (libjxl))\nPress [q] to stop, [?] for help\n[mjpeg @ 0x8d0c50e00] No JPEG data found in image\n[vist#0:0/mjpeg @ 0x8d0c40300] [dec:mjpeg @ 0x8d1034280] Error submitting packet to decoder: Invalid data found when processing input\n[vist#0:0/mjpeg @ 0x8d0c40300] [dec:mjpeg @ 0x8d1034280] Decode error rate 1 exceeds maximum 0.666667\n[vist#0:0/mjpeg @ 0x8d0c40300] [dec:mjpeg @ 0x8d1034280] Task finished with error code: -1145393733 (Error number -1145393733 occurred)\n[vist#0:0/mjpeg @ 0x8d0c40300] [dec:mjpeg @ 0x8d1034280] Terminating thread with return code -1145393733 (Error number -1145393733 occurred)\n[vf#0:0 @ 0x8d0c38f00] Cannot determine format of input 0:0 after EOF\n[vf#0:0 @ 0x8d0c38f00] Task finished with error code: -1094995529 (Invalid data found when processing input)\n[vf#0:0 @ 0x8d0c38f00] Terminating thread with return code -1094995529 (Invalid data found when processing input)\n[vost#0:0/libjxl @ 0x8d0c84000] [enc:libjxl @ 0x8d0c481c0] Could not open encoder before EOF\n[vost#0:0/libjxl @ 0x8d0c84000] Task finished with error code: -22 (Invalid argument)\n[vost#0:0/libjxl @ 0x8d0c84000] Terminating thread with return code -22 (Invalid argument)\n[out#0/image2 @ 0x8d102cf00] Nothing was written into output file, because at least one of its streams received no packets.\nframe=    0 fps=0.0 q=0.0 Lsize=       0KiB time=N/A bitrate=N/A speed=N/A elapsed=0:00:00.00    \nConversion failed!\n",
      "time": "2025-09-01T17:56:17.393844+08:00"
    },
    {
      "file": "/Users/nameko_1/Downloads/test/pkg/converter/test_integration/test_1.jpg",
      "error": "both cjxl and FFmpeg lossless JXL conversion failed: exit status 69, output: ffmpeg version 8.0 Copyright (c) 2000-2025 the FFmpeg developers\n  built with Apple clang version 17.0.0 (clang-1700.0.13.3)\n  configuration: --prefix=/opt/homebrew/Cellar/ffmpeg/8.0 --enable-shared --enable-pthreads --enable-version3 --cc=clang --host-cflags= --host-ldflags='-Wl,-ld_classic' --enable-ffplay --enable-gnutls --enable-gpl --enable-libaom --enable-libaribb24 --enable-libbluray --enable-libdav1d --enable-libharfbuzz --enable-libjxl --enable-libmp3lame --enable-libopus --enable-librav1e --enable-librist --enable-librubberband --enable-libsnappy --enable-libsrt --enable-libssh --enable-libsvtav1 --enable-libtesseract --enable-libtheora --enable-libvidstab --enable-libvmaf --enable-libvorbis --enable-libvpx --enable-libwebp --enable-libx264 --enable-libx265 --enable-libxml2 --enable-libxvid --enable-lzma --enable-libfontconfig --enable-libfreetype --enable-frei0r --enable-libass --enable-libopencore-amrnb --enable-libopencore-amrwb --enable-libopenjpeg --enable-libspeex --enable-libsoxr --enable-libzmq --enable-libzimg --disable-libjack --disable-indev=jack --enable-videotoolbox --enable-audiotoolbox --enable-neon\n  libavutil      60.  8.100 / 60.  8.100\n  libavcodec     62. 11.100 / 62. 11.100\n  libavformat    62.  3.100 / 62.  3.100\n  libavdevice    62.  1.100 / 62.  1.100\n  libavfilter    11.  4.100 / 11.  4.100\n  libswscale      9.  1.100 /  9.  1.100\n  libswresample   6.  1.100 /  6.  1.100\n[mjpeg @ 0x930c64380] No JPEG data found in image\n[image2 @ 0x931010000] Could not find codec parameters for stream 0 (Video: mjpeg, none(bt470bg/unknown/unknown)): unspecified size\nConsider increasing the value for the 'analyzeduration' (0) and 'probesize' (5000000) options\nInput #0, image2, from '/Users/nameko_1/Downloads/test/pkg/converter/test_integration/test_1.jpg':\n  Duration: 00:00:00.04, start: 0.000000, bitrate: 5 kb/s\n  Stream #0:0: Video: mjpeg, none(bt470bg/unknown/unknown), 25 fps, 25 tbr, 25 tbn\nStream mapping:\n  Stream #0:0 -\u003e #0:0 (mjpeg (native) -\u003e jpegxl (libjxl))\nPress [q] to stop, [?] for help\n[mjpeg @ 0x930c64e00] No JPEG data found in image\n[vist#0:0/mjpeg @ 0x930c54300] [dec:mjpeg @ 0x93100c280] Error submitting packet to decoder: Invalid data found when processing input\n[vist#0:0/mjpeg @ 0x930c54300] [dec:mjpeg @ 0x93100c280] Decode error rate 1 exceeds maximum 0.666667\n[vist#0:0/mjpeg @ 0x930c54300] [dec:mjpeg @ 0x93100c280] Task finished with error code: -1145393733 (Error number -1145393733 occurred)\n[vf#0:0 @ 0x930c4cf00] Cannot determine format of input 0:0 after EOF\n[vf#0:0 @ 0x930c4cf00] Task finished with error code: -1094995529 (Invalid data found when processing input)\n[vf#0:0 @ 0x930c4cf00] Terminating thread with return code -1094995529 (Invalid data found when processing input)\n[vost#0:0/libjxl @ 0x930c90000] [enc:libjxl @ 0x930c5c1c0] Could not open encoder before EOF\n[vost#0:0/libjxl @ 0x930c90000] Task finished with error code: -22 (Invalid argument)\n[vost#0:0/libjxl @ 0x930c90000] Terminating thread with return code -22 (Invalid argument)\n[vist#0:0/mjpeg @ 0x930c54300] [dec:mjpeg @ 0x93100c280] Terminating thread with return code -1145393733 (Error number -1145393733 occurred)\n[out#0/image2 @ 0x931014240] Nothing was written into output file, because at least one of its streams received no packets.\nframe=    0 fps=0.0 q=0.0 Lsize=       0KiB time=N/A bitrate=N/A speed=N/A elapsed=0:00:00.00    \nConversion failed!\n",
      "time": "2025-09-01T17:56:17.393844+08:00"
    },
    {
      "file": "/Users/nameko_1/Downloads/test/pkg/converter/test_integration/test_0.jpg",
      "error": "both cjxl and FFmpeg lossless JXL conversion failed: exit status 69, output: ffmpeg version 8.0 Copyright (c) 2000-2025 the FFmpeg developers\n  built with Apple clang version 17.0.0 (clang-1700.0.13.3)\n  configuration: --prefix=/opt/homebrew/Cellar/ffmpeg/8.0 --enable-shared --enable-pthreads --enable-version3 --cc=clang --host-cflags= --host-ldflags='-Wl,-ld_classic' --enable-ffplay --enable-gnutls --enable-gpl --enable-libaom --enable-libaribb24 --enable-libbluray --enable-libdav1d --enable-libharfbuzz --enable-libjxl --enable-libmp3lame --enable-libopus --enable-librav1e --enable-librist --enable-librubberband --enable-libsnappy --enable-libsrt --enable-libssh --enable-libsvtav1 --enable-libtesseract --enable-libtheora --enable-libvidstab --enable-libvmaf --enable-libvorbis --enable-libvpx --enable-libwebp --enable-libx264 --enable-libx265 --enable-libxml2 --enable-libxvid --enable-lzma --enable-libfontconfig --enable-libfreetype --enable-frei0r --enable-libass --enable-libopencore-amrnb --enable-libopencore-amrwb --enable-libopenjpeg --enable-libspeex --enable-libsoxr --enable-libzmq --enable-libzimg --disable-libjack --disable-indev=jack --enable-videotoolbox --enable-audiotoolbox --enable-neon\n  libavutil      60.  8.100 / 60.  8.100\n  libavcodec     62. 11.100 / 62. 11.100\n  libavformat    62.  3.100 / 62.  3.100\n  libavdevice    62.  1.100 / 62.  1.100\n  libavfilter    11.  4.100 / 11.  4.100\n  libswscale      9.  1.100 /  9.  1.100\n  libswresample   6.  1.100 /  6.  1.100\n[mjpeg @ 0xa1d04c380] No JPEG data found in image\n[image2 @ 0xa1d020000] Could not find codec parameters for stream 0 (Video: mjpeg, none(bt470bg/unknown/unknown)): unspecified size\nConsider increasing the value for the 'analyzeduration' (0) and 'probesize' (5000000) options\nInput #0, image2, from '/Users/nameko_1/Downloads/test/pkg/converter/test_integration/test_0.jpg':\n  Duration: 00:00:00.04, start: 0.000000, bitrate: 5 kb/s\n  Stream #0:0: Video: mjpeg, none(bt470bg/unknown/unknown), 25 fps, 25 tbr, 25 tbn\nStream mapping:\n  Stream #0:0 -\u003e #0:0 (mjpeg (native) -\u003e jpegxl (libjxl))\nPress [q] to stop, [?] for help\n[mjpeg @ 0xa1d04ce00] No JPEG data found in image\n[vist#0:0/mjpeg @ 0xa1cc60300] [dec:mjpeg @ 0xa1d018280] Error submitting packet to decoder: Invalid data found when processing input\n[vist#0:0/mjpeg @ 0xa1cc60300] [dec:mjpeg @ 0xa1d018280] Decode error rate 1 exceeds maximum 0.666667\n[vist#0:0/mjpeg @ 0xa1cc60300] [dec:mjpeg @ 0xa1d018280] Task finished with error code: -1145393733 (Error number -1145393733 occurred)\n[vist#0:0/mjpeg @ 0xa1cc60300] [dec:mjpeg @ 0xa1d018280] Terminating thread with return code -1145393733 (Error number -1145393733 occurred)\n[vf#0:0 @ 0xa1cc64500] Cannot determine format of input 0:0 after EOF\n[vf#0:0 @ 0xa1cc64500] Task finished with error code: -1094995529 (Invalid data found when processing input)\n[vf#0:0 @ 0xa1cc64500] Terminating thread with return code -1094995529 (Invalid data found when processing input)\n[vost#0:0/libjxl @ 0xa1d07c000] [enc:libjxl @ 0xa1d01c1c0] Could not open encoder before EOF\n[vost#0:0/libjxl @ 0xa1d07c000] Task finished with error code: -22 (Invalid argument)\n[vost#0:0/libjxl @ 0xa1d07c000] Terminating thread with return code -22 (Invalid argument)\n[out#0/image2 @ 0xa1d024240] Nothing was written into output file, because at least one of its streams received no packets.\nframe=    0 fps=0.0 q=0.0 Lsize=       0KiB time=N/A bitrate=N/A speed=N/A elapsed=0:00:00.00    \nConversion failed!\n",
      "time": "2025-09-01T17:56:17.393844+08:00"
    },
    {
      "file": "/Users/nameko_1/Downloads/test/pkg/converter/test_integration/test_4.jpg",
      "error": "both cjxl and FFmpeg lossless JXL conversion failed: exit status 69, output: ffmpeg version 8.0 Copyright (c) 2000-2025 the FFmpeg developers\n  built with Apple clang version 17.0.0 (clang-1700.0.13.3)\n  configuration: --prefix=/opt/homebrew/Cellar/ffmpeg/8.0 --enable-shared --enable-pthreads --enable-version3 --cc=clang --host-cflags= --host-ldflags='-Wl,-ld_classic' --enable-ffplay --enable-gnutls --enable-gpl --enable-libaom --enable-libaribb24 --enable-libbluray --enable-libdav1d --enable-libharfbuzz --enable-libjxl --enable-libmp3lame --enable-libopus --enable-librav1e --enable-librist --enable-librubberband --enable-libsnappy --enable-libsrt --enable-libssh --enable-libsvtav1 --enable-libtesseract --enable-libtheora --enable-libvidstab --enable-libvmaf --enable-libvorbis --enable-libvpx --enable-libwebp --enable-libx264 --enable-libx265 --enable-libxml2 --enable-libxvid --enable-lzma --enable-libfontconfig --enable-libfreetype --enable-frei0r --enable-libass --enable-libopencore-amrnb --enable-libopencore-amrwb --enable-libopenjpeg --enable-libspeex --enable-libsoxr --enable-libzmq --enable-libzimg --disable-libjack --disable-indev=jack --enable-videotoolbox --enable-audiotoolbox --enable-neon\n  libavutil      60.  8.100 / 60.  8.100\n  libavcodec     62. 11.100 / 62. 11.100\n  libavformat    62.  3.100 / 62.  3.100\n  libavdevice    62.  1.100 / 62.  1.100\n  libavfilter    11.  4.100 / 11.  4.100\n  libswscale      9.  1.100 /  9.  1.100\n  libswresample   6.  1.100 /  6.  1.100\n[mjpeg @ 0x713038380] No JPEG data found in image\n[image2 @ 0x713034000] Could not find codec parameters for stream 0 (Video: mjpeg, none(bt470bg/unknown/unknown)): unspecified size\nConsider increasing the value for the 'analyzeduration' (0) and 'probesize' (5000000) options\nInput #0, image2, from '/Users/nameko_1/Downloads/test/pkg/converter/test_integration/test_4.jpg':\n  Duration: 00:00:00.04, start: 0.000000, bitrate: 5 kb/s\n  Stream #0:0: Video: mjpeg, none(bt470bg/unknown/unknown), 25 fps, 25 tbr, 25 tbn\nStream mapping:\n  Stream #0:0 -\u003e #0:0 (mjpeg (native) -\u003e jpegxl (libjxl))\nPress [q] to stop, [?] for help\n[mjpeg @ 0x713038e00] No JPEG data found in image\n[vist#0:0/mjpeg @ 0x71302c300] [dec:mjpeg @ 0x713030280] Error submitting packet to decoder: Invalid data found when processing input\n[vist#0:0/mjpeg @ 0x71302c300] [dec:mjpeg @ 0x713030280] Decode error rate 1 exceeds maximum 0.666667\n[vist#0:0/mjpeg @ 0x71302c300] [dec:mjpeg @ 0x713030280] Task finished with error code: -1145393733 (Error number -1145393733 occurred)\n[vist#0:0/mjpeg @ 0x71302c300] [dec:mjpeg @ 0x713030280] Terminating thread with return code -1145393733 (Error number -1145393733 occurred)\n[vf#0:0 @ 0x712c68500] Cannot determine format of input 0:0 after EOF\n[vf#0:0 @ 0x712c68500] Task finished with error code: -1094995529 (Invalid data found when processing input)\n[vf#0:0 @ 0x712c68500] Terminating thread with return code -1094995529 (Invalid data found when processing input)\n[vost#0:0/libjxl @ 0x712c98000] [enc:libjxl @ 0x712c09500] Could not open encoder before EOF\n[vost#0:0/libjxl @ 0x712c98000] Task finished with error code: -22 (Invalid argument)\n[vost#0:0/libjxl @ 0x712c98000] Terminating thread with return code -22 (Invalid argument)\n[out#0/image2 @ 0x712c0c780] Nothing was written into output file, because at least one of its streams received no packets.\nframe=    0 fps=0.0 q=0.0 Lsize=       0KiB time=N/A bitrate=N/A speed=N/A elapsed=0:00:00.00    \nConversion failed!\n",
      "time": "2025-09-01T17:56:17.393845+08:00"
    },
    {
      "file": "/Users/nameko_1/Downloads/test/pkg/converter/test_integration/test_3.jpg",
      "error": "both cjxl and FFmpeg lossless JXL conversion failed: exit status 69, output: ffmpeg version 8.0 Copyright (c) 2000-2025 the FFmpeg developers\n  built with Apple clang version 17.0.0 (clang-1700.0.13.3)\n  configuration: --prefix=/opt/homebrew/Cellar/ffmpeg/8.0 --enable-shared --enable-pthreads --enable-version3 --cc=clang --host-cflags= --host-ldflags='-Wl,-ld_classic' --enable-ffplay --enable-gnutls --enable-gpl --enable-libaom --enable-libaribb24 --enable-libbluray --enable-libdav1d --enable-libharfbuzz --enable-libjxl --enable-libmp3lame --enable-libopus --enable-librav1e --enable-librist --enable-librubberband --enable-libsnappy --enable-libsrt --enable-libssh --enable-libsvtav1 --enable-libtesseract --enable-libtheora --enable-libvidstab --enable-libvmaf --enable-libvorbis --enable-libvpx --enable-libwebp --enable-libx264 --enable-libx265 --enable-libxml2 --enable-libxvid --enable-lzma --enable-libfontconfig --enable-libfreetype --enable-frei0r --enable-libass --enable-libopencore-amrnb --enable-libopencore-amrwb --enable-libopenjpeg --enable-libspeex --enable-libsoxr --enable-libzmq --enable-libzimg --disable-libjack --disable-indev=jack --enable-videotoolbox --enable-audiotoolbox --enable-neon\n  libavutil      60.  8.100 / 60.  8.100\n  libavcodec     62. 11.100 / 62. 11.100\n  libavformat    62.  3.100 / 62.  3.100\n  libavdevice    62.  1.100 / 62.  1.100\n  libavfilter    11.  4.100 / 11.  4.100\n  libswscale      9.  1.100 /  9.  1.100\n  libswresample   6.  1.100 /  6.  1.100\n[mjpeg @ 0xb4d038380] No JPEG data found in image\n[image2 @ 0xb4d034000] Could not find codec parameters for stream 0 (Video: mjpeg, none(bt470bg/unknown/unknown)): unspecified size\nConsider increasing the value for the 'analyzeduration' (0) and 'probesize' (5000000) options\nInput #0, image2, from '/Users/nameko_1/Downloads/test/pkg/converter/test_integration/test_3.jpg':\n  Duration: 00:00:00.04, start: 0.000000, bitrate: 5 kb/s\n  Stream #0:0: Video: mjpeg, none(bt470bg/unknown/unknown), 25 fps, 25 tbr, 25 tbn\nStream mapping:\n  Stream #0:0 -\u003e #0:0 (mjpeg (native) -\u003e jpegxl (libjxl))\nPress [q] to stop, [?] for help\n[mjpeg @ 0xb4d038e00] No JPEG data found in image\n[vist#0:0/mjpeg @ 0xb4d02c300] [dec:mjpeg @ 0xb4d030280] Error submitting packet to decoder: Invalid data found when processing input\n[vist#0:0/mjpeg @ 0xb4d02c300] [dec:mjpeg @ 0xb4d030280] Decode error rate 1 exceeds maximum 0.666667\n[vist#0:0/mjpeg @ 0xb4d02c300] [dec:mjpeg @ 0xb4d030280] Task finished with error code: -1145393733 (Error number -1145393733 occurred)\n[vist#0:0/mjpeg @ 0xb4d02c300] [dec:mjpeg @ 0xb4d030280] Terminating thread with return code -1145393733 (Error number -1145393733 occurred)\n[vf#0:0 @ 0xb4cc70500] Cannot determine format of input 0:0 after EOF\n[vf#0:0 @ 0xb4cc70500] Task finished with error code: -1094995529 (Invalid data found when processing input)\n[vf#0:0 @ 0xb4cc70500] Terminating thread with return code -1094995529 (Invalid data found when processing input)\n[vost#0:0/libjxl @ 0xb4cca0000] [enc:libjxl @ 0xb4cc09570] Could not open encoder before EOF\n[vost#0:0/libjxl @ 0xb4cca0000] Task finished with error code: -22 (Invalid argument)\n[vost#0:0/libjxl @ 0xb4cca0000] Terminating thread with return code -22 (Invalid argument)\n[out#0/image2 @ 0xb4cc0c780] Nothing was written into output file, because at least one of its streams received no packets.\nframe=    0 fps=0.0 q=0.0 Lsize=       0KiB time=N/A bitrate=N/A speed=N/A elapsed=0:00:00.00    \nConversion failed!\n",
      "time": "2025-09-01T17:56:17.393845+08:00"
    }
  ]
}